<svg width="40" height="40" viewBox="0 0 40 40" fill="none" xmlns="http://www.w3.org/2000/svg">
<path d="M29.482 10.1752H29.4995M11.0527 2.27698H28.6044C33.4511 2.27698 37.3802 6.20606 37.3802 11.0528V28.6045C37.3802 33.4513 33.4511 37.3804 28.6044 37.3804H11.0527C6.20593 37.3804 2.27686 33.4513 2.27686 28.6045V11.0528C2.27686 6.20606 6.20593 2.27698 11.0527 2.27698ZM26.8492 18.7229C27.0658 20.1836 26.8163 21.6755 26.1362 22.9862C25.4561 24.297 24.38 25.3599 23.0609 26.0238C21.7419 26.6877 20.2471 26.9188 18.7891 26.6842C17.3312 26.4496 15.9843 25.7613 14.9401 24.7171C13.8959 23.6729 13.2076 22.326 12.973 20.8681C12.7384 19.4101 12.9695 17.9153 13.6334 16.5963C14.2973 15.2773 15.3602 14.2011 16.671 13.521C17.9817 12.8409 19.4736 12.5914 20.9343 12.808C22.4243 13.0289 23.8037 13.7232 24.8688 14.7884C25.934 15.8535 26.6283 17.2329 26.8492 18.7229Z" stroke="#1E1E1E" stroke-width="4.55395" stroke-linecap="round" stroke-linejoin="round"/>
</svg>
