<svg width="41" height="39" viewBox="0 0 41 39" fill="none" xmlns="http://www.w3.org/2000/svg">
<path d="M27.6084 12.808C30.5523 12.808 33.3757 13.9775 35.4574 16.0592C37.5391 18.1409 38.7086 20.9643 38.7086 23.9082V36.8585H31.3084V23.9082C31.3084 22.9269 30.9186 21.9858 30.2247 21.2919C29.5308 20.598 28.5897 20.2082 27.6084 20.2082C26.627 20.2082 25.6859 20.598 24.992 21.2919C24.2981 21.9858 23.9083 22.9269 23.9083 23.9082V36.8585H16.5081V23.9082C16.5081 20.9643 17.6776 18.1409 19.7593 16.0592C21.841 13.9775 24.6644 12.808 27.6084 12.808Z" stroke="#1E1E1E" stroke-width="3.41546" stroke-linecap="round" stroke-linejoin="round"/>
<path d="M9.10793 14.658H1.70776V36.8585H9.10793V14.658Z" stroke="#1E1E1E" stroke-width="3.41546" stroke-linecap="round" stroke-linejoin="round"/>
<path d="M5.40785 9.1079C7.45135 9.1079 9.10793 7.45132 9.10793 5.40782C9.10793 3.36432 7.45135 1.70773 5.40785 1.70773C3.36435 1.70773 1.70776 3.36432 1.70776 5.40782C1.70776 7.45132 3.36435 9.1079 5.40785 9.1079Z" stroke="#1E1E1E" stroke-width="3.41546" stroke-linecap="round" stroke-linejoin="round"/>
</svg>
