<svg width="809" height="196" viewBox="0 0 809 196" fill="none" xmlns="http://www.w3.org/2000/svg">
<rect y="0.271973" width="71.9876" height="195.239" rx="5" fill="#4AA4B6"/>
<rect x="41.4475" y="36.2661" width="75.2598" height="61.0804" fill="#4AA4B6"/>
<path d="M759 0C786.614 3.99441e-06 809 22.3858 809 50V146C809 173.614 786.614 196 759 196H141C135.477 196 131 191.523 131 186V10C131 4.47715 135.477 0 141 0H759ZM186.514 47.1729V148.709H214.079V109.047H244.322V86.835H214.079V47.1729H186.514ZM250.866 47.1729V148.709H278.135V47.1729H250.866ZM321.367 47.1729L287.852 148.709H317.599L323.465 129.274H350.024L343.839 108.649H329.692L339.811 75.1357H340.603L349.967 106.154L350.006 106.144L356.943 129.274H356.947L362.814 148.709H392.562L359.046 47.1729H321.367ZM402.34 47.1729V148.709H450.134C457.504 148.709 463.851 147.469 469.172 144.99C474.493 142.511 478.592 139.107 481.468 134.777C484.376 130.448 485.83 125.506 485.83 119.954C485.83 115.162 484.772 110.996 482.657 107.46C480.542 103.89 477.699 101.097 474.13 99.0811C470.56 97.0319 466.593 95.9241 462.23 95.7588V94.7686C466.163 93.9753 469.602 92.5539 472.543 90.5049C475.484 88.4227 477.766 85.8441 479.386 82.7705C481.038 79.6968 481.864 76.2913 481.864 72.5566C481.864 67.4008 480.508 62.9219 477.798 59.1211C475.121 55.3204 471.138 52.3781 465.851 50.2959C460.595 48.2136 454.099 47.1729 446.365 47.1729H402.34ZM495.597 75.6309V148.709H523.162V75.6309H495.597ZM533.449 47.1729V69.3838H563.989V148.709H591.159V69.3838H621.699V47.1729H533.449ZM643.774 47.1729L610.259 148.709H640.006L645.873 129.274H670.467L664.94 108.649H652.1L662.218 75.1357H663.01L673.128 108.649L679.354 129.274L685.222 148.709H714.969L681.453 47.1729H643.774ZM441.606 68.7891C445.044 68.7891 447.886 69.6319 450.134 71.3174C452.381 72.9699 453.505 75.3672 453.505 78.5068C453.505 80.5887 452.975 82.3574 451.918 83.8115C450.893 85.2323 449.456 86.3229 447.605 87.083C445.755 87.8431 443.622 88.2236 441.21 88.2236H436.289V105.278H443.192C446.002 105.278 448.399 105.708 450.382 106.567C452.398 107.427 453.951 108.683 455.042 110.336C456.132 111.988 456.679 114.005 456.679 116.384C456.679 119.788 455.521 122.366 453.208 124.118C450.894 125.837 447.423 126.696 442.796 126.696H429.905V125.804H429.745V69.0859H429.905V68.7891H441.606ZM495.597 47.1729V69.0859H523.162V47.1729H495.597Z" fill="#4AA4B6"/>
</svg>
