<svg width="340" height="486" viewBox="0 0 340 486" fill="none" xmlns="http://www.w3.org/2000/svg">
<mask id="path-1-inside-1_27_538" fill="white">
<path d="M0 383.864C0 378.341 4.47715 373.864 10 373.864H300C322.091 373.864 340 391.772 340 413.864V445.864C340 467.955 322.091 485.864 300 485.864H10C4.47716 485.864 0 481.387 0 475.864V383.864Z"/>
</mask>
<path d="M0 383.864C0 378.341 4.47715 373.864 10 373.864H300C322.091 373.864 340 391.772 340 413.864V445.864C340 467.955 322.091 485.864 300 485.864H10C4.47716 485.864 0 481.387 0 475.864V383.864Z" fill="#4AA4B6" stroke="#4AA4B6" stroke-width="30" mask="url(#path-1-inside-1_27_538)"/>
<path d="M283.021 2C312.283 2.00023 336 25.7518 336 55.0449V286.955C336 316.248 312.283 340 283.021 340H243.676C240.558 340 238.034 337.469 238.034 334.354V7.64648C238.034 4.5307 240.558 2.00008 243.676 2H283.021ZM126.365 2L126.656 2.00781C129.639 2.15942 132.007 4.62819 132.007 7.64648V63.8389H208.178V171.935H132.007V334.284C132.007 337.4 129.483 339.93 126.365 339.93H10.6416C7.52362 339.93 5.00012 337.4 5 334.284V7.64648C5 4.53065 7.52355 2 10.6416 2H126.365Z" fill="#4AA4B6" stroke="#4AA4B6" stroke-width="4"/>
<path fill-rule="evenodd" clip-rule="evenodd" d="M41.2295 425.52H56.416V436.674H41.2295V456.591H27.3867V405.603H41.2295V425.52ZM73.3955 456.591H59.7021V405.603H73.3955V456.591ZM130.857 456.591H115.919L112.973 446.832H112.971L109.487 435.216L109.468 435.221L104.765 419.645H104.367L99.2861 436.474H106.39L109.496 446.832H96.1592L93.2129 456.591H78.2754L95.1055 405.603H114.026L130.857 456.591ZM157.876 405.603C161.759 405.603 165.021 406.126 167.66 407.171C170.315 408.217 172.316 409.695 173.66 411.603C175.021 413.512 175.702 415.761 175.702 418.35C175.702 420.225 175.287 421.936 174.457 423.479C173.644 425.022 172.498 426.317 171.021 427.363C169.544 428.392 167.818 429.106 165.843 429.504V430.001C168.033 430.085 170.026 430.64 171.818 431.669C173.611 432.682 175.038 434.085 176.101 435.877C177.162 437.653 177.693 439.745 177.693 442.151C177.693 444.939 176.963 447.421 175.503 449.595C174.059 451.769 172 453.479 169.328 454.724C166.656 455.969 163.469 456.591 159.769 456.591H135.768V405.603H157.876ZM196.44 456.591H182.599V419.894H196.44V456.591ZM245.923 416.756H230.586V456.591H216.942V416.756H201.606V405.603H245.923V416.756ZM292.76 456.591H277.821L274.875 446.832L271.748 436.474L266.668 419.645H266.27L261.188 436.474H267.637L270.412 446.832H258.062L255.115 456.591H240.178L257.008 405.603H275.929L292.76 456.591ZM149.61 416.607H149.529V445.089H149.61V445.538H156.083C158.406 445.538 160.15 445.106 161.312 444.243C162.473 443.363 163.054 442.068 163.055 440.359C163.055 439.164 162.78 438.151 162.232 437.322C161.685 436.492 160.905 435.861 159.893 435.429C158.897 434.998 157.693 434.782 156.282 434.782H152.815V426.217H155.287C156.498 426.217 157.569 426.027 158.498 425.645C159.427 425.263 160.15 424.715 160.664 424.001C161.195 423.271 161.461 422.383 161.461 421.337C161.461 419.761 160.896 418.558 159.769 417.728C158.64 416.882 157.211 416.459 155.485 416.458H149.61V416.607ZM196.44 416.607H182.599V405.603H196.44V416.607Z" fill="white"/>
</svg>
