<svg width="37" height="37" viewBox="0 0 37 37" fill="none" xmlns="http://www.w3.org/2000/svg">
<path d="M22.7622 7.70832C24.3087 8.00211 25.73 8.73855 26.8441 9.82339C27.9583 10.9082 28.7146 12.2921 29.0164 13.7979M22.7622 1.54166C25.9752 1.8892 28.9714 3.29018 31.2588 5.51454C33.5461 7.73891 34.9887 10.6545 35.3497 13.7825M33.7664 26.085V30.71C33.7682 31.1393 33.6778 31.5643 33.5012 31.9577C33.3245 32.3511 33.0654 32.7043 32.7405 32.9945C32.4156 33.2848 32.0319 33.5058 31.6142 33.6433C31.1965 33.7809 30.7539 33.832 30.3147 33.7933C25.4425 33.2779 20.7625 31.6568 16.6505 29.0604C12.8249 26.6934 9.58149 23.5353 7.15054 19.8104C4.47467 15.7885 2.80942 11.2094 2.28971 6.44416C2.25014 6.01783 2.30218 5.58816 2.4425 5.18249C2.58282 4.77683 2.80836 4.40405 3.10475 4.08791C3.40115 3.77176 3.7619 3.51917 4.16404 3.34621C4.56619 3.17326 5.00091 3.08373 5.44054 3.08332H10.1905C10.9589 3.07596 11.7039 3.3409 12.2865 3.82877C12.8691 4.31664 13.2497 4.99414 13.3572 5.73499C13.5577 7.21509 13.9295 8.66836 14.4655 10.0671C14.6786 10.6189 14.7247 11.2186 14.5984 11.7951C14.4721 12.3716 14.1787 12.9008 13.753 13.32L11.7422 15.2779C13.9962 19.1375 17.2783 22.3333 21.2422 24.5279L23.253 22.57C23.6835 22.1555 24.227 21.8698 24.8191 21.7469C25.4113 21.6239 26.0272 21.6688 26.5939 21.8762C28.0304 22.3982 29.5229 22.7602 31.043 22.9554C31.8122 23.0611 32.5146 23.4383 33.0167 24.0153C33.5188 24.5923 33.7856 25.3289 33.7664 26.085Z" stroke="#1E1E1E" stroke-width="4.55395" stroke-linecap="round" stroke-linejoin="round"/>
</svg>
